<svg xmlns="http://www.w3.org/2000/svg" viewBox="32.0 10.7 234.8 234.8">
	<rect x="32.0" y="10.7" width="234.8" height="234.8" fill="#000000"/>
	<circle cx="54.4" cy="12.8" r="0.6" fill="#ffffff"/>
	<circle cx="60.8" cy="12.8" r="0.7" fill="#ffffff"/>
	<circle cx="67.2" cy="12.8" r="0.7" fill="#ffffff"/>
	<circle cx="73.6" cy="12.8" r="0.7" fill="#ffffff"/>
	<circle cx="80.0" cy="12.8" r="0.7" fill="#ffffff"/>
	<circle cx="86.4" cy="12.8" r="0.7" fill="#ffffff"/>
	<circle cx="92.8" cy="12.8" r="0.7" fill="#ffffff"/>
	<circle cx="99.2" cy="12.8" r="0.7" fill="#ffffff"/>
	<circle cx="105.6" cy="12.8" r="0.7" fill="#ffffff"/>
	<circle cx="112.0" cy="12.8" r="0.6" fill="#ffffff"/>
	<circle cx="118.4" cy="12.8" r="0.7" fill="#ffffff"/>
	<circle cx="124.8" cy="12.8" r="0.7" fill="#ffffff"/>
	<circle cx="131.2" cy="12.8" r="0.7" fill="#ffffff"/>
	<circle cx="137.6" cy="12.8" r="0.9" fill="#ffffff"/>
	<circle cx="144.0" cy="12.8" r="1.1" fill="#ffffff"/>
	<circle cx="150.4" cy="12.8" r="2.1" fill="#ffffff"/>
	<circle cx="156.8" cy="12.8" r="1.9" fill="#ffffff"/>
	<circle cx="163.2" cy="12.8" r="1.0" fill="#ffffff"/>
	<circle cx="169.6" cy="12.8" r="2.1" fill="#ffffff"/>
	<circle cx="176.0" cy="12.8" r="1.9" fill="#ffffff"/>
	<circle cx="54.4" cy="19.2" r="0.3" fill="#ffffff"/>
	<circle cx="60.8" cy="19.2" r="0.8" fill="#ffffff"/>
	<circle cx="67.2" cy="19.2" r="0.8" fill="#ffffff"/>
	<circle cx="73.6" cy="19.2" r="0.7" fill="#ffffff"/>
	<circle cx="80.0" cy="19.2" r="0.7" fill="#ffffff"/>
	<circle cx="86.4" cy="19.2" r="0.7" fill="#ffffff"/>
	<circle cx="92.8" cy="19.2" r="0.7" fill="#ffffff"/>
	<circle cx="99.2" cy="19.2" r="0.8" fill="#ffffff"/>
	<circle cx="105.6" cy="19.2" r="0.7" fill="#ffffff"/>
	<circle cx="112.0" cy="19.2" r="0.6" fill="#ffffff"/>
	<circle cx="118.4" cy="19.2" r="0.6" fill="#ffffff"/>
	<circle cx="124.8" cy="19.2" r="0.6" fill="#ffffff"/>
	<circle cx="131.2" cy="19.2" r="0.6" fill="#ffffff"/>
	<circle cx="137.6" cy="19.2" r="0.7" fill="#ffffff"/>
	<circle cx="144.0" cy="19.2" r="1.0" fill="#ffffff"/>
	<circle cx="150.4" cy="19.2" r="1.3" fill="#ffffff"/>
	<circle cx="156.8" cy="19.2" r="1.9" fill="#ffffff"/>
	<circle cx="163.2" cy="19.2" r="1.4" fill="#ffffff"/>
	<circle cx="169.6" cy="19.2" r="1.7" fill="#ffffff"/>
	<circle cx="176.0" cy="19.2" r="1.9" fill="#ffffff"/>
	<circle cx="60.8" cy="25.6" r="0.8" fill="#ffffff"/>
	<circle cx="67.2" cy="25.6" r="0.8" fill="#ffffff"/>
	<circle cx="73.6" cy="25.6" r="0.6" fill="#ffffff"/>
	<circle cx="80.0" cy="25.6" r="0.6" fill="#ffffff"/>
	<circle cx="86.4" cy="25.6" r="0.6" fill="#ffffff"/>
	<circle cx="92.8" cy="25.6" r="0.7" fill="#ffffff"/>
	<circle cx="99.2" cy="25.6" r="0.8" fill="#ffffff"/>
	<circle cx="105.6" cy="25.6" r="0.7" fill="#ffffff"/>
	<circle cx="112.0" cy="25.6" r="0.6" fill="#ffffff"/>
	<circle cx="118.4" cy="25.6" r="0.6" fill="#ffffff"/>
	<circle cx="124.8" cy="25.6" r="0.7" fill="#ffffff"/>
	<circle cx="131.2" cy="25.6" r="0.7" fill="#ffffff"/>
	<circle cx="137.6" cy="25.6" r="0.8" fill="#ffffff"/>
	<circle cx="144.0" cy="25.6" r="0.9" fill="#ffffff"/>
	<circle cx="150.4" cy="25.6" r="1.4" fill="#ffffff"/>
	<circle cx="156.8" cy="25.6" r="1.5" fill="#ffffff"/>
	<circle cx="163.2" cy="25.6" r="1.4" fill="#ffffff"/>
	<circle cx="169.6" cy="25.6" r="1.7" fill="#ffffff"/>
	<circle cx="176.0" cy="25.6" r="1.8" fill="#ffffff"/>
	<circle cx="60.8" cy="32.0" r="0.4" fill="#ffffff"/>
	<circle cx="67.2" cy="32.0" r="0.8" fill="#ffffff"/>
	<circle cx="73.6" cy="32.0" r="0.6" fill="#ffffff"/>
	<circle cx="80.0" cy="32.0" r="0.6" fill="#ffffff"/>
	<circle cx="86.4" cy="32.0" r="0.6" fill="#ffffff"/>
	<circle cx="92.8" cy="32.0" r="0.6" fill="#ffffff"/>
	<circle cx="99.2" cy="32.0" r="0.7" fill="#ffffff"/>
	<circle cx="105.6" cy="32.0" r="0.7" fill="#ffffff"/>
	<circle cx="112.0" cy="32.0" r="0.7" fill="#ffffff"/>
	<circle cx="118.4" cy="32.0" r="0.7" fill="#ffffff"/>
	<circle cx="124.8" cy="32.0" r="0.9" fill="#ffffff"/>
	<circle cx="131.2" cy="32.0" r="0.7" fill="#ffffff"/>
	<circle cx="137.6" cy="32.0" r="0.8" fill="#ffffff"/>
	<circle cx="144.0" cy="32.0" r="0.8" fill="#ffffff"/>
	<circle cx="150.4" cy="32.0" r="1.0" fill="#ffffff"/>
	<circle cx="156.8" cy="32.0" r="1.5" fill="#ffffff"/>
	<circle cx="163.2" cy="32.0" r="1.2" fill="#ffffff"/>
	<circle cx="169.6" cy="32.0" r="1.8" fill="#ffffff"/>
	<circle cx="176.0" cy="32.0" r="0.8" fill="#ffffff"/>
	<circle cx="60.8" cy="38.4" r="0.7" fill="#ffffff"/>
	<circle cx="67.2" cy="38.4" r="1.3" fill="#ffffff"/>
	<circle cx="73.6" cy="38.4" r="0.6" fill="#ffffff"/>
	<circle cx="80.0" cy="38.4" r="0.6" fill="#ffffff"/>
	<circle cx="86.4" cy="38.4" r="0.6" fill="#ffffff"/>
	<circle cx="92.8" cy="38.4" r="0.6" fill="#ffffff"/>
	<circle cx="99.2" cy="38.4" r="0.6" fill="#ffffff"/>
	<circle cx="105.6" cy="38.4" r="0.6" fill="#ffffff"/>
	<circle cx="112.0" cy="38.4" r="0.7" fill="#ffffff"/>
	<circle cx="118.4" cy="38.4" r="0.7" fill="#ffffff"/>
	<circle cx="124.8" cy="38.4" r="0.8" fill="#ffffff"/>
	<circle cx="131.2" cy="38.4" r="0.9" fill="#ffffff"/>
	<circle cx="137.6" cy="38.4" r="1.1" fill="#ffffff"/>
	<circle cx="144.0" cy="38.4" r="1.1" fill="#ffffff"/>
	<circle cx="150.4" cy="38.4" r="1.2" fill="#ffffff"/>
	<circle cx="156.8" cy="38.4" r="1.6" fill="#ffffff"/>
	<circle cx="163.2" cy="38.4" r="1.2" fill="#ffffff"/>
	<circle cx="169.6" cy="38.4" r="1.4" fill="#ffffff"/>
	<circle cx="176.0" cy="38.4" r="0.3" fill="#ffffff"/>
	<circle cx="60.8" cy="44.8" r="0.9" fill="#ffffff"/>
	<circle cx="67.2" cy="44.8" r="1.5" fill="#ffffff"/>
	<circle cx="73.6" cy="44.8" r="1.2" fill="#ffffff"/>
	<circle cx="80.0" cy="44.8" r="0.7" fill="#ffffff"/>
	<circle cx="86.4" cy="44.8" r="0.6" fill="#ffffff"/>
	<circle cx="92.8" cy="44.8" r="0.6" fill="#ffffff"/>
	<circle cx="99.2" cy="44.8" r="0.5" fill="#ffffff"/>
	<circle cx="105.6" cy="44.8" r="0.6" fill="#ffffff"/>
	<circle cx="112.0" cy="44.8" r="0.6" fill="#ffffff"/>
	<circle cx="118.4" cy="44.8" r="0.6" fill="#ffffff"/>
	<circle cx="124.8" cy="44.8" r="0.7" fill="#ffffff"/>
	<circle cx="131.2" cy="44.8" r="1.0" fill="#ffffff"/>
	<circle cx="137.6" cy="44.8" r="0.9" fill="#ffffff"/>
	<circle cx="144.0" cy="44.8" r="1.0" fill="#ffffff"/>
	<circle cx="150.4" cy="44.8" r="1.3" fill="#ffffff"/>
	<circle cx="156.8" cy="44.8" r="1.7" fill="#ffffff"/>
	<circle cx="163.2" cy="44.8" r="1.4" fill="#ffffff"/>
	<circle cx="169.6" cy="44.8" r="0.8" fill="#ffffff"/>
	<circle cx="48.0" cy="51.2" r="0.4" fill="#ffffff"/>
	<circle cx="60.8" cy="51.2" r="0.8" fill="#ffffff"/>
	<circle cx="67.2" cy="51.2" r="1.4" fill="#ffffff"/>
	<circle cx="73.6" cy="51.2" r="1.4" fill="#ffffff"/>
	<circle cx="80.0" cy="51.2" r="1.4" fill="#ffffff"/>
	<circle cx="86.4" cy="51.2" r="1.0" fill="#ffffff"/>
	<circle cx="92.8" cy="51.2" r="0.6" fill="#ffffff"/>
	<circle cx="99.2" cy="51.2" r="0.5" fill="#ffffff"/>
	<circle cx="105.6" cy="51.2" r="0.6" fill="#ffffff"/>
	<circle cx="112.0" cy="51.2" r="0.6" fill="#ffffff"/>
	<circle cx="118.4" cy="51.2" r="0.6" fill="#ffffff"/>
	<circle cx="124.8" cy="51.2" r="0.7" fill="#ffffff"/>
	<circle cx="131.2" cy="51.2" r="0.8" fill="#ffffff"/>
	<circle cx="137.6" cy="51.2" r="0.8" fill="#ffffff"/>
	<circle cx="144.0" cy="51.2" r="1.0" fill="#ffffff"/>
	<circle cx="150.4" cy="51.2" r="1.2" fill="#ffffff"/>
	<circle cx="156.8" cy="51.2" r="1.3" fill="#ffffff"/>
	<circle cx="163.2" cy="51.2" r="1.1" fill="#ffffff"/>
	<circle cx="169.6" cy="51.2" r="0.3" fill="#ffffff"/>
	<circle cx="48.0" cy="57.6" r="0.3" fill="#ffffff"/>
	<circle cx="60.8" cy="57.6" r="0.5" fill="#ffffff"/>
	<circle cx="67.2" cy="57.6" r="1.4" fill="#ffffff"/>
	<circle cx="73.6" cy="57.6" r="1.4" fill="#ffffff"/>
	<circle cx="80.0" cy="57.6" r="1.4" fill="#ffffff"/>
	<circle cx="86.4" cy="57.6" r="1.5" fill="#ffffff"/>
	<circle cx="92.8" cy="57.6" r="1.2" fill="#ffffff"/>
	<circle cx="99.2" cy="57.6" r="0.7" fill="#ffffff"/>
	<circle cx="105.6" cy="57.6" r="0.5" fill="#ffffff"/>
	<circle cx="112.0" cy="57.6" r="0.6" fill="#ffffff"/>
	<circle cx="118.4" cy="57.6" r="0.6" fill="#ffffff"/>
	<circle cx="124.8" cy="57.6" r="0.7" fill="#ffffff"/>
	<circle cx="131.2" cy="57.6" r="0.8" fill="#ffffff"/>
	<circle cx="137.6" cy="57.6" r="0.9" fill="#ffffff"/>
	<circle cx="144.0" cy="57.6" r="1.2" fill="#ffffff"/>
	<circle cx="150.4" cy="57.6" r="1.4" fill="#ffffff"/>
	<circle cx="156.8" cy="57.6" r="1.2" fill="#ffffff"/>
	<circle cx="163.2" cy="57.6" r="0.4" fill="#ffffff"/>
	<circle cx="67.2" cy="64.0" r="1.0" fill="#ffffff"/>
	<circle cx="73.6" cy="64.0" r="1.4" fill="#ffffff"/>
	<circle cx="80.0" cy="64.0" r="1.4" fill="#ffffff"/>
	<circle cx="86.4" cy="64.0" r="1.4" fill="#ffffff"/>
	<circle cx="92.8" cy="64.0" r="1.4" fill="#ffffff"/>
	<circle cx="99.2" cy="64.0" r="1.3" fill="#ffffff"/>
	<circle cx="105.6" cy="64.0" r="1.0" fill="#ffffff"/>
	<circle cx="112.0" cy="64.0" r="0.8" fill="#ffffff"/>
	<circle cx="118.4" cy="64.0" r="0.6" fill="#ffffff"/>
	<circle cx="124.8" cy="64.0" r="0.7" fill="#ffffff"/>
	<circle cx="131.2" cy="64.0" r="1.0" fill="#ffffff"/>
	<circle cx="137.6" cy="64.0" r="1.1" fill="#ffffff"/>
	<circle cx="144.0" cy="64.0" r="1.3" fill="#ffffff"/>
	<circle cx="150.4" cy="64.0" r="1.5" fill="#ffffff"/>
	<circle cx="67.2" cy="70.4" r="0.5" fill="#ffffff"/>
	<circle cx="73.6" cy="70.4" r="1.3" fill="#ffffff"/>
	<circle cx="80.0" cy="70.4" r="1.4" fill="#ffffff"/>
	<circle cx="86.4" cy="70.4" r="1.4" fill="#ffffff"/>
	<circle cx="92.8" cy="70.4" r="1.4" fill="#ffffff"/>
	<circle cx="99.2" cy="70.4" r="1.4" fill="#ffffff"/>
	<circle cx="105.6" cy="70.4" r="1.3" fill="#ffffff"/>
	<circle cx="112.0" cy="70.4" r="1.3" fill="#ffffff"/>
	<circle cx="118.4" cy="70.4" r="1.2" fill="#ffffff"/>
	<circle cx="124.8" cy="70.4" r="0.9" fill="#ffffff"/>
	<circle cx="131.2" cy="70.4" r="1.1" fill="#ffffff"/>
	<circle cx="137.6" cy="70.4" r="1.4" fill="#ffffff"/>
	<circle cx="144.0" cy="70.4" r="1.5" fill="#ffffff"/>
	<circle cx="150.4" cy="70.4" r="1.3" fill="#ffffff"/>
	<circle cx="73.6" cy="76.8" r="0.8" fill="#ffffff"/>
	<circle cx="80.0" cy="76.8" r="1.4" fill="#ffffff"/>
	<circle cx="86.4" cy="76.8" r="1.4" fill="#ffffff"/>
	<circle cx="92.8" cy="76.8" r="1.4" fill="#ffffff"/>
	<circle cx="99.2" cy="76.8" r="1.5" fill="#ffffff"/>
	<circle cx="105.6" cy="76.8" r="1.4" fill="#ffffff"/>
	<circle cx="112.0" cy="76.8" r="1.5" fill="#ffffff"/>
	<circle cx="118.4" cy="76.8" r="1.6" fill="#ffffff"/>
	<circle cx="124.8" cy="76.8" r="1.4" fill="#ffffff"/>
	<circle cx="131.2" cy="76.8" r="1.2" fill="#ffffff"/>
	<circle cx="137.6" cy="76.8" r="1.5" fill="#ffffff"/>
	<circle cx="144.0" cy="76.8" r="1.1" fill="#ffffff"/>
	<circle cx="150.4" cy="76.8" r="1.5" fill="#ffffff"/>
	<circle cx="156.8" cy="76.8" r="2.1" fill="#ffffff"/>
	<circle cx="73.6" cy="83.2" r="0.4" fill="#ffffff"/>
	<circle cx="80.0" cy="83.2" r="0.9" fill="#ffffff"/>
	<circle cx="86.4" cy="83.2" r="1.4" fill="#ffffff"/>
	<circle cx="92.8" cy="83.2" r="1.4" fill="#ffffff"/>
	<circle cx="99.2" cy="83.2" r="1.4" fill="#ffffff"/>
	<circle cx="105.6" cy="83.2" r="1.4" fill="#ffffff"/>
	<circle cx="112.0" cy="83.2" r="1.5" fill="#ffffff"/>
	<circle cx="118.4" cy="83.2" r="2.3" fill="#ffffff"/>
	<circle cx="124.8" cy="83.2" r="2.2" fill="#ffffff"/>
	<circle cx="131.2" cy="83.2" r="1.8" fill="#ffffff"/>
	<circle cx="137.6" cy="83.2" r="1.0" fill="#ffffff"/>
	<circle cx="144.0" cy="83.2" r="1.3" fill="#ffffff"/>
	<circle cx="150.4" cy="83.2" r="2.5" fill="#ffffff"/>
	<circle cx="156.8" cy="83.2" r="2.4" fill="#ffffff"/>
	<circle cx="73.6" cy="89.6" r="0.5" fill="#ffffff"/>
	<circle cx="80.0" cy="89.6" r="0.4" fill="#ffffff"/>
	<circle cx="86.4" cy="89.6" r="0.9" fill="#ffffff"/>
	<circle cx="92.8" cy="89.6" r="1.3" fill="#ffffff"/>
	<circle cx="99.2" cy="89.6" r="1.4" fill="#ffffff"/>
	<circle cx="105.6" cy="89.6" r="1.4" fill="#ffffff"/>
	<circle cx="112.0" cy="89.6" r="1.3" fill="#ffffff"/>
	<circle cx="118.4" cy="89.6" r="2.0" fill="#ffffff"/>
	<circle cx="124.8" cy="89.6" r="2.6" fill="#ffffff"/>
	<circle cx="131.2" cy="89.6" r="2.6" fill="#ffffff"/>
	<circle cx="137.6" cy="89.6" r="2.1" fill="#ffffff"/>
	<circle cx="144.0" cy="89.6" r="1.9" fill="#ffffff"/>
	<circle cx="150.4" cy="89.6" r="2.4" fill="#ffffff"/>
	<circle cx="156.8" cy="89.6" r="2.2" fill="#ffffff"/>
	<circle cx="163.2" cy="89.6" r="2.5" fill="#ffffff"/>
	<circle cx="169.6" cy="89.6" r="1.8" fill="#ffffff"/>
	<circle cx="73.6" cy="96.0" r="0.5" fill="#ffffff"/>
	<circle cx="80.0" cy="96.0" r="0.6" fill="#ffffff"/>
	<circle cx="86.4" cy="96.0" r="0.6" fill="#ffffff"/>
	<circle cx="92.8" cy="96.0" r="1.0" fill="#ffffff"/>
	<circle cx="99.2" cy="96.0" r="1.3" fill="#ffffff"/>
	<circle cx="105.6" cy="96.0" r="1.4" fill="#ffffff"/>
	<circle cx="112.0" cy="96.0" r="1.4" fill="#ffffff"/>
	<circle cx="118.4" cy="96.0" r="1.6" fill="#ffffff"/>
	<circle cx="124.8" cy="96.0" r="2.5" fill="#ffffff"/>
	<circle cx="131.2" cy="96.0" r="2.5" fill="#ffffff"/>
	<circle cx="137.6" cy="96.0" r="2.5" fill="#ffffff"/>
	<circle cx="144.0" cy="96.0" r="1.7" fill="#ffffff"/>
	<circle cx="150.4" cy="96.0" r="2.3" fill="#ffffff"/>
	<circle cx="156.8" cy="96.0" r="2.4" fill="#ffffff"/>
	<circle cx="163.2" cy="96.0" r="2.3" fill="#ffffff"/>
	<circle cx="169.6" cy="96.0" r="2.1" fill="#ffffff"/>
	<circle cx="73.6" cy="102.4" r="0.4" fill="#ffffff"/>
	<circle cx="80.0" cy="102.4" r="0.9" fill="#ffffff"/>
	<circle cx="86.4" cy="102.4" r="0.7" fill="#ffffff"/>
	<circle cx="92.8" cy="102.4" r="0.8" fill="#ffffff"/>
	<circle cx="99.2" cy="102.4" r="1.1" fill="#ffffff"/>
	<circle cx="105.6" cy="102.4" r="1.1" fill="#ffffff"/>
	<circle cx="112.0" cy="102.4" r="1.3" fill="#ffffff"/>
	<circle cx="118.4" cy="102.4" r="1.3" fill="#ffffff"/>
	<circle cx="124.8" cy="102.4" r="2.2" fill="#ffffff"/>
	<circle cx="131.2" cy="102.4" r="2.7" fill="#ffffff"/>
	<circle cx="137.6" cy="102.4" r="2.4" fill="#ffffff"/>
	<circle cx="144.0" cy="102.4" r="1.8" fill="#ffffff"/>
	<circle cx="150.4" cy="102.4" r="1.9" fill="#ffffff"/>
	<circle cx="156.8" cy="102.4" r="2.2" fill="#ffffff"/>
	<circle cx="163.2" cy="102.4" r="2.5" fill="#ffffff"/>
	<circle cx="169.6" cy="102.4" r="2.3" fill="#ffffff"/>
	<circle cx="80.0" cy="108.8" r="0.9" fill="#ffffff"/>
	<circle cx="86.4" cy="108.8" r="1.0" fill="#ffffff"/>
	<circle cx="92.8" cy="108.8" r="1.0" fill="#ffffff"/>
	<circle cx="99.2" cy="108.8" r="1.2" fill="#ffffff"/>
	<circle cx="105.6" cy="108.8" r="1.5" fill="#ffffff"/>
	<circle cx="112.0" cy="108.8" r="1.5" fill="#ffffff"/>
	<circle cx="118.4" cy="108.8" r="1.3" fill="#ffffff"/>
	<circle cx="124.8" cy="108.8" r="2.0" fill="#ffffff"/>
	<circle cx="131.2" cy="108.8" r="2.5" fill="#ffffff"/>
	<circle cx="137.6" cy="108.8" r="2.0" fill="#ffffff"/>
	<circle cx="144.0" cy="108.8" r="1.7" fill="#ffffff"/>
	<circle cx="150.4" cy="108.8" r="1.8" fill="#ffffff"/>
	<circle cx="156.8" cy="108.8" r="1.8" fill="#ffffff"/>
	<circle cx="163.2" cy="108.8" r="2.1" fill="#ffffff"/>
	<circle cx="169.6" cy="108.8" r="2.4" fill="#ffffff"/>
	<circle cx="80.0" cy="115.2" r="0.8" fill="#ffffff"/>
	<circle cx="86.4" cy="115.2" r="1.5" fill="#ffffff"/>
	<circle cx="92.8" cy="115.2" r="1.5" fill="#ffffff"/>
	<circle cx="99.2" cy="115.2" r="1.7" fill="#ffffff"/>
	<circle cx="105.6" cy="115.2" r="2.0" fill="#ffffff"/>
	<circle cx="112.0" cy="115.2" r="2.0" fill="#ffffff"/>
	<circle cx="118.4" cy="115.2" r="1.4" fill="#ffffff"/>
	<circle cx="124.8" cy="115.2" r="2.0" fill="#ffffff"/>
	<circle cx="131.2" cy="115.2" r="2.3" fill="#ffffff"/>
	<circle cx="137.6" cy="115.2" r="2.3" fill="#ffffff"/>
	<circle cx="144.0" cy="115.2" r="2.2" fill="#ffffff"/>
	<circle cx="150.4" cy="115.2" r="2.0" fill="#ffffff"/>
	<circle cx="156.8" cy="115.2" r="2.0" fill="#ffffff"/>
	<circle cx="163.2" cy="115.2" r="2.3" fill="#ffffff"/>
	<circle cx="169.6" cy="115.2" r="2.2" fill="#ffffff"/>
	<circle cx="80.0" cy="121.6" r="0.5" fill="#ffffff"/>
	<circle cx="86.4" cy="121.6" r="1.7" fill="#ffffff"/>
	<circle cx="92.8" cy="121.6" r="1.8" fill="#ffffff"/>
	<circle cx="99.2" cy="121.6" r="1.9" fill="#ffffff"/>
	<circle cx="105.6" cy="121.6" r="2.1" fill="#ffffff"/>
	<circle cx="112.0" cy="121.6" r="2.2" fill="#ffffff"/>
	<circle cx="118.4" cy="121.6" r="1.5" fill="#ffffff"/>
	<circle cx="124.8" cy="121.6" r="1.5" fill="#ffffff"/>
	<circle cx="131.2" cy="121.6" r="2.3" fill="#ffffff"/>
	<circle cx="137.6" cy="121.6" r="2.2" fill="#ffffff"/>
	<circle cx="144.0" cy="121.6" r="2.3" fill="#ffffff"/>
	<circle cx="150.4" cy="121.6" r="2.4" fill="#ffffff"/>
	<circle cx="156.8" cy="121.6" r="2.4" fill="#ffffff"/>
	<circle cx="163.2" cy="121.6" r="2.4" fill="#ffffff"/>
	<circle cx="169.6" cy="121.6" r="2.2" fill="#ffffff"/>
	<circle cx="176.0" cy="121.6" r="1.9" fill="#ffffff"/>
	<circle cx="86.4" cy="128.0" r="1.5" fill="#ffffff"/>
	<circle cx="92.8" cy="128.0" r="1.9" fill="#ffffff"/>
	<circle cx="99.2" cy="128.0" r="1.9" fill="#ffffff"/>
	<circle cx="105.6" cy="128.0" r="2.0" fill="#ffffff"/>
	<circle cx="112.0" cy="128.0" r="2.1" fill="#ffffff"/>
	<circle cx="118.4" cy="128.0" r="1.8" fill="#ffffff"/>
	<circle cx="124.8" cy="128.0" r="1.2" fill="#ffffff"/>
	<circle cx="131.2" cy="128.0" r="2.0" fill="#ffffff"/>
	<circle cx="137.6" cy="128.0" r="2.4" fill="#ffffff"/>
	<circle cx="144.0" cy="128.0" r="2.4" fill="#ffffff"/>
	<circle cx="150.4" cy="128.0" r="2.5" fill="#ffffff"/>
	<circle cx="156.8" cy="128.0" r="2.5" fill="#ffffff"/>
	<circle cx="163.2" cy="128.0" r="2.4" fill="#ffffff"/>
	<circle cx="169.6" cy="128.0" r="2.2" fill="#ffffff"/>
	<circle cx="176.0" cy="128.0" r="2.1" fill="#ffffff"/>
	<circle cx="86.4" cy="134.4" r="0.9" fill="#ffffff"/>
	<circle cx="92.8" cy="134.4" r="1.9" fill="#ffffff"/>
	<circle cx="99.2" cy="134.4" r="1.9" fill="#ffffff"/>
	<circle cx="105.6" cy="134.4" r="1.9" fill="#ffffff"/>
	<circle cx="112.0" cy="134.4" r="2.0" fill="#ffffff"/>
	<circle cx="118.4" cy="134.4" r="1.9" fill="#ffffff"/>
	<circle cx="124.8" cy="134.4" r="1.3" fill="#ffffff"/>
	<circle cx="131.2" cy="134.4" r="1.4" fill="#ffffff"/>
	<circle cx="137.6" cy="134.4" r="2.5" fill="#ffffff"/>
	<circle cx="144.0" cy="134.4" r="2.4" fill="#ffffff"/>
	<circle cx="150.4" cy="134.4" r="2.5" fill="#ffffff"/>
	<circle cx="156.8" cy="134.4" r="2.5" fill="#ffffff"/>
	<circle cx="163.2" cy="134.4" r="2.4" fill="#ffffff"/>
	<circle cx="169.6" cy="134.4" r="2.2" fill="#ffffff"/>
	<circle cx="176.0" cy="134.4" r="2.2" fill="#ffffff"/>
	<circle cx="182.4" cy="134.4" r="1.8" fill="#ffffff"/>
	<circle cx="86.4" cy="140.8" r="0.5" fill="#ffffff"/>
	<circle cx="92.8" cy="140.8" r="1.8" fill="#ffffff"/>
	<circle cx="99.2" cy="140.8" r="1.9" fill="#ffffff"/>
	<circle cx="105.6" cy="140.8" r="1.9" fill="#ffffff"/>
	<circle cx="112.0" cy="140.8" r="2.0" fill="#ffffff"/>
	<circle cx="118.4" cy="140.8" r="2.0" fill="#ffffff"/>
	<circle cx="124.8" cy="140.8" r="1.5" fill="#ffffff"/>
	<circle cx="131.2" cy="140.8" r="1.1" fill="#ffffff"/>
	<circle cx="137.6" cy="140.8" r="2.0" fill="#ffffff"/>
	<circle cx="144.0" cy="140.8" r="2.5" fill="#ffffff"/>
	<circle cx="150.4" cy="140.8" r="2.5" fill="#ffffff"/>
	<circle cx="156.8" cy="140.8" r="2.5" fill="#ffffff"/>
	<circle cx="163.2" cy="140.8" r="2.5" fill="#ffffff"/>
	<circle cx="169.6" cy="140.8" r="2.3" fill="#ffffff"/>
	<circle cx="176.0" cy="140.8" r="2.2" fill="#ffffff"/>
	<circle cx="182.4" cy="140.8" r="2.1" fill="#ffffff"/>
	<circle cx="188.8" cy="140.8" r="1.7" fill="#ffffff"/>
	<circle cx="86.4" cy="147.2" r="0.3" fill="#ffffff"/>
	<circle cx="92.8" cy="147.2" r="1.4" fill="#ffffff"/>
	<circle cx="99.2" cy="147.2" r="1.9" fill="#ffffff"/>
	<circle cx="105.6" cy="147.2" r="1.9" fill="#ffffff"/>
	<circle cx="112.0" cy="147.2" r="1.9" fill="#ffffff"/>
	<circle cx="118.4" cy="147.2" r="2.0" fill="#ffffff"/>
	<circle cx="124.8" cy="147.2" r="1.7" fill="#ffffff"/>
	<circle cx="131.2" cy="147.2" r="1.1" fill="#ffffff"/>
	<circle cx="137.6" cy="147.2" r="1.4" fill="#ffffff"/>
	<circle cx="144.0" cy="147.2" r="2.5" fill="#ffffff"/>
	<circle cx="150.4" cy="147.2" r="2.5" fill="#ffffff"/>
	<circle cx="156.8" cy="147.2" r="2.4" fill="#ffffff"/>
	<circle cx="163.2" cy="147.2" r="2.5" fill="#ffffff"/>
	<circle cx="169.6" cy="147.2" r="2.4" fill="#ffffff"/>
	<circle cx="176.0" cy="147.2" r="2.2" fill="#ffffff"/>
	<circle cx="182.4" cy="147.2" r="2.2" fill="#ffffff"/>
	<circle cx="188.8" cy="147.2" r="1.8" fill="#ffffff"/>
	<circle cx="92.8" cy="153.6" r="1.1" fill="#ffffff"/>
	<circle cx="99.2" cy="153.6" r="1.8" fill="#ffffff"/>
	<circle cx="105.6" cy="153.6" r="1.9" fill="#ffffff"/>
	<circle cx="112.0" cy="153.6" r="1.9" fill="#ffffff"/>
	<circle cx="118.4" cy="153.6" r="2.0" fill="#ffffff"/>
	<circle cx="124.8" cy="153.6" r="1.9" fill="#ffffff"/>
	<circle cx="131.2" cy="153.6" r="1.3" fill="#ffffff"/>
	<circle cx="137.6" cy="153.6" r="1.1" fill="#ffffff"/>
	<circle cx="144.0" cy="153.6" r="2.2" fill="#ffffff"/>
	<circle cx="150.4" cy="153.6" r="2.5" fill="#ffffff"/>
	<circle cx="156.8" cy="153.6" r="2.4" fill="#ffffff"/>
	<circle cx="163.2" cy="153.6" r="2.4" fill="#ffffff"/>
	<circle cx="169.6" cy="153.6" r="2.4" fill="#ffffff"/>
	<circle cx="176.0" cy="153.6" r="2.2" fill="#ffffff"/>
	<circle cx="182.4" cy="153.6" r="2.2" fill="#ffffff"/>
	<circle cx="188.8" cy="153.6" r="2.1" fill="#ffffff"/>
	<circle cx="195.2" cy="153.6" r="1.6" fill="#ffffff"/>
	<circle cx="92.8" cy="160.0" r="0.7" fill="#ffffff"/>
	<circle cx="99.2" cy="160.0" r="1.7" fill="#ffffff"/>
	<circle cx="105.6" cy="160.0" r="1.9" fill="#ffffff"/>
	<circle cx="112.0" cy="160.0" r="1.9" fill="#ffffff"/>
	<circle cx="118.4" cy="160.0" r="1.9" fill="#ffffff"/>
	<circle cx="124.8" cy="160.0" r="2.0" fill="#ffffff"/>
	<circle cx="131.2" cy="160.0" r="1.6" fill="#ffffff"/>
	<circle cx="137.6" cy="160.0" r="1.1" fill="#ffffff"/>
	<circle cx="144.0" cy="160.0" r="1.8" fill="#ffffff"/>
	<circle cx="150.4" cy="160.0" r="2.5" fill="#ffffff"/>
	<circle cx="156.8" cy="160.0" r="2.4" fill="#ffffff"/>
	<circle cx="163.2" cy="160.0" r="2.4" fill="#ffffff"/>
	<circle cx="169.6" cy="160.0" r="2.4" fill="#ffffff"/>
	<circle cx="176.0" cy="160.0" r="2.3" fill="#ffffff"/>
	<circle cx="182.4" cy="160.0" r="2.2" fill="#ffffff"/>
	<circle cx="188.8" cy="160.0" r="2.2" fill="#ffffff"/>
	<circle cx="195.2" cy="160.0" r="1.6" fill="#ffffff"/>
	<circle cx="92.8" cy="166.4" r="0.4" fill="#ffffff"/>
	<circle cx="99.2" cy="166.4" r="1.5" fill="#ffffff"/>
	<circle cx="105.6" cy="166.4" r="1.8" fill="#ffffff"/>
	<circle cx="112.0" cy="166.4" r="1.9" fill="#ffffff"/>
	<circle cx="118.4" cy="166.4" r="1.9" fill="#ffffff"/>
	<circle cx="124.8" cy="166.4" r="2.0" fill="#ffffff"/>
	<circle cx="131.2" cy="166.4" r="2.0" fill="#ffffff"/>
	<circle cx="137.6" cy="166.4" r="1.3" fill="#ffffff"/>
	<circle cx="144.0" cy="166.4" r="1.5" fill="#ffffff"/>
	<circle cx="150.4" cy="166.4" r="2.2" fill="#ffffff"/>
	<circle cx="156.8" cy="166.4" r="1.8" fill="#ffffff"/>
	<circle cx="163.2" cy="166.4" r="2.3" fill="#ffffff"/>
	<circle cx="169.6" cy="166.4" r="2.4" fill="#ffffff"/>
	<circle cx="176.0" cy="166.4" r="2.3" fill="#ffffff"/>
	<circle cx="182.4" cy="166.4" r="2.2" fill="#ffffff"/>
	<circle cx="188.8" cy="166.4" r="2.2" fill="#ffffff"/>
	<circle cx="195.2" cy="166.4" r="2.0" fill="#ffffff"/>
	<circle cx="201.6" cy="166.4" r="1.3" fill="#ffffff"/>
	<circle cx="99.2" cy="172.8" r="1.1" fill="#ffffff"/>
	<circle cx="105.6" cy="172.8" r="1.7" fill="#ffffff"/>
	<circle cx="112.0" cy="172.8" r="1.8" fill="#ffffff"/>
	<circle cx="118.4" cy="172.8" r="2.0" fill="#ffffff"/>
	<circle cx="124.8" cy="172.8" r="2.0" fill="#ffffff"/>
	<circle cx="131.2" cy="172.8" r="2.0" fill="#ffffff"/>
	<circle cx="137.6" cy="172.8" r="1.8" fill="#ffffff"/>
	<circle cx="144.0" cy="172.8" r="1.2" fill="#ffffff"/>
	<circle cx="150.4" cy="172.8" r="2.1" fill="#ffffff"/>
	<circle cx="156.8" cy="172.8" r="2.1" fill="#ffffff"/>
	<circle cx="163.2" cy="172.8" r="2.3" fill="#ffffff"/>
	<circle cx="169.6" cy="172.8" r="2.3" fill="#ffffff"/>
	<circle cx="176.0" cy="172.8" r="2.2" fill="#ffffff"/>
	<circle cx="182.4" cy="172.8" r="2.2" fill="#ffffff"/>
	<circle cx="188.8" cy="172.8" r="2.2" fill="#ffffff"/>
	<circle cx="195.2" cy="172.8" r="2.2" fill="#ffffff"/>
	<circle cx="201.6" cy="172.8" r="1.3" fill="#ffffff"/>
	<circle cx="208.0" cy="172.8" r="1.6" fill="#ffffff"/>
	<circle cx="99.2" cy="179.2" r="0.7" fill="#ffffff"/>
	<circle cx="105.6" cy="179.2" r="1.7" fill="#ffffff"/>
	<circle cx="112.0" cy="179.2" r="1.7" fill="#ffffff"/>
	<circle cx="118.4" cy="179.2" r="1.9" fill="#ffffff"/>
	<circle cx="124.8" cy="179.2" r="2.0" fill="#ffffff"/>
	<circle cx="131.2" cy="179.2" r="2.0" fill="#ffffff"/>
	<circle cx="137.6" cy="179.2" r="2.0" fill="#ffffff"/>
	<circle cx="144.0" cy="179.2" r="1.2" fill="#ffffff"/>
	<circle cx="150.4" cy="179.2" r="1.9" fill="#ffffff"/>
	<circle cx="156.8" cy="179.2" r="2.4" fill="#ffffff"/>
	<circle cx="163.2" cy="179.2" r="2.3" fill="#ffffff"/>
	<circle cx="169.6" cy="179.2" r="2.3" fill="#ffffff"/>
	<circle cx="176.0" cy="179.2" r="2.2" fill="#ffffff"/>
	<circle cx="182.4" cy="179.2" r="2.2" fill="#ffffff"/>
	<circle cx="188.8" cy="179.2" r="2.2" fill="#ffffff"/>
	<circle cx="195.2" cy="179.2" r="2.2" fill="#ffffff"/>
	<circle cx="201.6" cy="179.2" r="1.6" fill="#ffffff"/>
	<circle cx="208.0" cy="179.2" r="1.1" fill="#ffffff"/>
	<circle cx="99.2" cy="185.6" r="0.4" fill="#ffffff"/>
	<circle cx="105.6" cy="185.6" r="1.5" fill="#ffffff"/>
	<circle cx="112.0" cy="185.6" r="1.7" fill="#ffffff"/>
	<circle cx="118.4" cy="185.6" r="1.8" fill="#ffffff"/>
	<circle cx="124.8" cy="185.6" r="2.0" fill="#ffffff"/>
	<circle cx="131.2" cy="185.6" r="2.0" fill="#ffffff"/>
	<circle cx="137.6" cy="185.6" r="2.1" fill="#ffffff"/>
	<circle cx="144.0" cy="185.6" r="1.5" fill="#ffffff"/>
	<circle cx="150.4" cy="185.6" r="1.4" fill="#ffffff"/>
	<circle cx="156.8" cy="185.6" r="2.4" fill="#ffffff"/>
	<circle cx="163.2" cy="185.6" r="2.3" fill="#ffffff"/>
	<circle cx="169.6" cy="185.6" r="2.2" fill="#ffffff"/>
	<circle cx="176.0" cy="185.6" r="2.2" fill="#ffffff"/>
	<circle cx="182.4" cy="185.6" r="2.2" fill="#ffffff"/>
	<circle cx="188.8" cy="185.6" r="2.2" fill="#ffffff"/>
	<circle cx="195.2" cy="185.6" r="2.2" fill="#ffffff"/>
	<circle cx="201.6" cy="185.6" r="1.9" fill="#ffffff"/>
	<circle cx="208.0" cy="185.6" r="1.0" fill="#ffffff"/>
	<circle cx="105.6" cy="192.0" r="1.2" fill="#ffffff"/>
	<circle cx="112.0" cy="192.0" r="1.7" fill="#ffffff"/>
	<circle cx="118.4" cy="192.0" r="1.7" fill="#ffffff"/>
	<circle cx="124.8" cy="192.0" r="2.0" fill="#ffffff"/>
	<circle cx="131.2" cy="192.0" r="2.0" fill="#ffffff"/>
	<circle cx="137.6" cy="192.0" r="2.1" fill="#ffffff"/>
	<circle cx="144.0" cy="192.0" r="1.7" fill="#ffffff"/>
	<circle cx="150.4" cy="192.0" r="1.1" fill="#ffffff"/>
	<circle cx="156.8" cy="192.0" r="2.2" fill="#ffffff"/>
	<circle cx="163.2" cy="192.0" r="2.3" fill="#ffffff"/>
	<circle cx="169.6" cy="192.0" r="2.2" fill="#ffffff"/>
	<circle cx="176.0" cy="192.0" r="2.2" fill="#ffffff"/>
	<circle cx="182.4" cy="192.0" r="2.2" fill="#ffffff"/>
	<circle cx="188.8" cy="192.0" r="2.2" fill="#ffffff"/>
	<circle cx="195.2" cy="192.0" r="2.2" fill="#ffffff"/>
	<circle cx="201.6" cy="192.0" r="2.1" fill="#ffffff"/>
	<circle cx="208.0" cy="192.0" r="1.1" fill="#ffffff"/>
	<circle cx="214.4" cy="192.0" r="1.6" fill="#ffffff"/>
	<circle cx="105.6" cy="198.4" r="0.9" fill="#ffffff"/>
	<circle cx="112.0" cy="198.4" r="1.8" fill="#ffffff"/>
	<circle cx="118.4" cy="198.4" r="1.8" fill="#ffffff"/>
	<circle cx="124.8" cy="198.4" r="1.9" fill="#ffffff"/>
	<circle cx="131.2" cy="198.4" r="2.1" fill="#ffffff"/>
	<circle cx="137.6" cy="198.4" r="2.1" fill="#ffffff"/>
	<circle cx="144.0" cy="198.4" r="1.9" fill="#ffffff"/>
	<circle cx="150.4" cy="198.4" r="1.1" fill="#ffffff"/>
	<circle cx="156.8" cy="198.4" r="2.0" fill="#ffffff"/>
	<circle cx="163.2" cy="198.4" r="2.3" fill="#ffffff"/>
	<circle cx="169.6" cy="198.4" r="2.2" fill="#ffffff"/>
	<circle cx="176.0" cy="198.4" r="2.2" fill="#ffffff"/>
	<circle cx="182.4" cy="198.4" r="2.2" fill="#ffffff"/>
	<circle cx="188.8" cy="198.4" r="2.2" fill="#ffffff"/>
	<circle cx="195.2" cy="198.4" r="2.2" fill="#ffffff"/>
	<circle cx="201.6" cy="198.4" r="2.1" fill="#ffffff"/>
	<circle cx="208.0" cy="198.4" r="1.2" fill="#ffffff"/>
	<circle cx="214.4" cy="198.4" r="1.4" fill="#ffffff"/>
	<circle cx="220.8" cy="198.4" r="2.0" fill="#ffffff"/>
	<circle cx="105.6" cy="204.8" r="0.6" fill="#ffffff"/>
	<circle cx="112.0" cy="204.8" r="1.7" fill="#ffffff"/>
	<circle cx="118.4" cy="204.8" r="1.8" fill="#ffffff"/>
	<circle cx="124.8" cy="204.8" r="1.9" fill="#ffffff"/>
	<circle cx="131.2" cy="204.8" r="2.1" fill="#ffffff"/>
	<circle cx="137.6" cy="204.8" r="2.1" fill="#ffffff"/>
	<circle cx="144.0" cy="204.8" r="2.0" fill="#ffffff"/>
	<circle cx="150.4" cy="204.8" r="1.2" fill="#ffffff"/>
	<circle cx="156.8" cy="204.8" r="1.6" fill="#ffffff"/>
	<circle cx="163.2" cy="204.8" r="2.3" fill="#ffffff"/>
	<circle cx="169.6" cy="204.8" r="2.2" fill="#ffffff"/>
	<circle cx="176.0" cy="204.8" r="2.2" fill="#ffffff"/>
	<circle cx="182.4" cy="204.8" r="2.2" fill="#ffffff"/>
	<circle cx="188.8" cy="204.8" r="2.2" fill="#ffffff"/>
	<circle cx="195.2" cy="204.8" r="2.2" fill="#ffffff"/>
	<circle cx="201.6" cy="204.8" r="2.2" fill="#ffffff"/>
	<circle cx="208.0" cy="204.8" r="1.3" fill="#ffffff"/>
	<circle cx="214.4" cy="204.8" r="1.2" fill="#ffffff"/>
	<circle cx="220.8" cy="204.8" r="2.1" fill="#ffffff"/>
	<circle cx="227.2" cy="204.8" r="0.7" fill="#ffffff"/>
	<circle cx="105.6" cy="211.2" r="0.4" fill="#ffffff"/>
	<circle cx="112.0" cy="211.2" r="1.6" fill="#ffffff"/>
	<circle cx="118.4" cy="211.2" r="1.9" fill="#ffffff"/>
	<circle cx="124.8" cy="211.2" r="1.9" fill="#ffffff"/>
	<circle cx="131.2" cy="211.2" r="2.0" fill="#ffffff"/>
	<circle cx="137.6" cy="211.2" r="2.1" fill="#ffffff"/>
	<circle cx="144.0" cy="211.2" r="2.1" fill="#ffffff"/>
	<circle cx="150.4" cy="211.2" r="1.4" fill="#ffffff"/>
	<circle cx="156.8" cy="211.2" r="1.3" fill="#ffffff"/>
	<circle cx="163.2" cy="211.2" r="2.3" fill="#ffffff"/>
	<circle cx="169.6" cy="211.2" r="2.2" fill="#ffffff"/>
	<circle cx="176.0" cy="211.2" r="2.2" fill="#ffffff"/>
	<circle cx="182.4" cy="211.2" r="2.2" fill="#ffffff"/>
	<circle cx="188.8" cy="211.2" r="2.2" fill="#ffffff"/>
	<circle cx="195.2" cy="211.2" r="2.2" fill="#ffffff"/>
	<circle cx="201.6" cy="211.2" r="2.2" fill="#ffffff"/>
	<circle cx="208.0" cy="211.2" r="1.3" fill="#ffffff"/>
	<circle cx="214.4" cy="211.2" r="1.0" fill="#ffffff"/>
	<circle cx="220.8" cy="211.2" r="2.1" fill="#ffffff"/>
	<circle cx="227.2" cy="211.2" r="1.3" fill="#ffffff"/>
	<circle cx="112.0" cy="217.6" r="1.4" fill="#ffffff"/>
	<circle cx="118.4" cy="217.6" r="2.0" fill="#ffffff"/>
	<circle cx="124.8" cy="217.6" r="1.9" fill="#ffffff"/>
	<circle cx="131.2" cy="217.6" r="2.0" fill="#ffffff"/>
	<circle cx="137.6" cy="217.6" r="2.0" fill="#ffffff"/>
	<circle cx="144.0" cy="217.6" r="2.2" fill="#ffffff"/>
	<circle cx="150.4" cy="217.6" r="1.6" fill="#ffffff"/>
	<circle cx="156.8" cy="217.6" r="1.1" fill="#ffffff"/>
	<circle cx="163.2" cy="217.6" r="2.2" fill="#ffffff"/>
	<circle cx="169.6" cy="217.6" r="2.2" fill="#ffffff"/>
	<circle cx="176.0" cy="217.6" r="2.2" fill="#ffffff"/>
	<circle cx="182.4" cy="217.6" r="2.2" fill="#ffffff"/>
	<circle cx="188.8" cy="217.6" r="2.2" fill="#ffffff"/>
	<circle cx="195.2" cy="217.6" r="2.2" fill="#ffffff"/>
	<circle cx="201.6" cy="217.6" r="2.1" fill="#ffffff"/>
	<circle cx="208.0" cy="217.6" r="1.3" fill="#ffffff"/>
	<circle cx="214.4" cy="217.6" r="1.0" fill="#ffffff"/>
	<circle cx="220.8" cy="217.6" r="1.8" fill="#ffffff"/>
	<circle cx="227.2" cy="217.6" r="1.9" fill="#ffffff"/>
	<circle cx="112.0" cy="224.0" r="1.0" fill="#ffffff"/>
	<circle cx="118.4" cy="224.0" r="2.0" fill="#ffffff"/>
	<circle cx="124.8" cy="224.0" r="1.9" fill="#ffffff"/>
	<circle cx="131.2" cy="224.0" r="1.9" fill="#ffffff"/>
	<circle cx="137.6" cy="224.0" r="1.9" fill="#ffffff"/>
	<circle cx="144.0" cy="224.0" r="2.0" fill="#ffffff"/>
	<circle cx="150.4" cy="224.0" r="1.9" fill="#ffffff"/>
	<circle cx="156.8" cy="224.0" r="1.0" fill="#ffffff"/>
	<circle cx="163.2" cy="224.0" r="2.1" fill="#ffffff"/>
	<circle cx="169.6" cy="224.0" r="2.2" fill="#ffffff"/>
	<circle cx="176.0" cy="224.0" r="2.2" fill="#ffffff"/>
	<circle cx="182.4" cy="224.0" r="2.2" fill="#ffffff"/>
	<circle cx="188.8" cy="224.0" r="2.2" fill="#ffffff"/>
	<circle cx="195.2" cy="224.0" r="2.2" fill="#ffffff"/>
	<circle cx="201.6" cy="224.0" r="2.0" fill="#ffffff"/>
	<circle cx="208.0" cy="224.0" r="1.2" fill="#ffffff"/>
	<circle cx="214.4" cy="224.0" r="1.0" fill="#ffffff"/>
	<circle cx="220.8" cy="224.0" r="1.5" fill="#ffffff"/>
	<circle cx="227.2" cy="224.0" r="2.3" fill="#ffffff"/>
	<circle cx="233.6" cy="224.0" r="0.7" fill="#ffffff"/>
	<circle cx="112.0" cy="230.4" r="0.7" fill="#ffffff"/>
	<circle cx="118.4" cy="230.4" r="1.9" fill="#ffffff"/>
	<circle cx="124.8" cy="230.4" r="1.9" fill="#ffffff"/>
	<circle cx="131.2" cy="230.4" r="1.9" fill="#ffffff"/>
	<circle cx="137.6" cy="230.4" r="1.9" fill="#ffffff"/>
	<circle cx="144.0" cy="230.4" r="1.9" fill="#ffffff"/>
	<circle cx="150.4" cy="230.4" r="2.0" fill="#ffffff"/>
	<circle cx="156.8" cy="230.4" r="1.2" fill="#ffffff"/>
	<circle cx="163.2" cy="230.4" r="1.9" fill="#ffffff"/>
	<circle cx="169.6" cy="230.4" r="2.2" fill="#ffffff"/>
	<circle cx="176.0" cy="230.4" r="2.2" fill="#ffffff"/>
	<circle cx="182.4" cy="230.4" r="2.2" fill="#ffffff"/>
	<circle cx="188.8" cy="230.4" r="2.2" fill="#ffffff"/>
	<circle cx="195.2" cy="230.4" r="2.2" fill="#ffffff"/>
	<circle cx="201.6" cy="230.4" r="1.8" fill="#ffffff"/>
	<circle cx="208.0" cy="230.4" r="1.1" fill="#ffffff"/>
	<circle cx="214.4" cy="230.4" r="1.0" fill="#ffffff"/>
	<circle cx="220.8" cy="230.4" r="1.4" fill="#ffffff"/>
	<circle cx="227.2" cy="230.4" r="2.3" fill="#ffffff"/>
	<circle cx="233.6" cy="230.4" r="1.0" fill="#ffffff"/>
	<circle cx="112.0" cy="236.8" r="0.4" fill="#ffffff"/>
	<circle cx="118.4" cy="236.8" r="1.7" fill="#ffffff"/>
	<circle cx="124.8" cy="236.8" r="1.9" fill="#ffffff"/>
	<circle cx="131.2" cy="236.8" r="1.9" fill="#ffffff"/>
	<circle cx="137.6" cy="236.8" r="1.9" fill="#ffffff"/>
	<circle cx="144.0" cy="236.8" r="1.9" fill="#ffffff"/>
	<circle cx="150.4" cy="236.8" r="2.0" fill="#ffffff"/>
	<circle cx="156.8" cy="236.8" r="1.6" fill="#ffffff"/>
	<circle cx="163.2" cy="236.8" r="1.8" fill="#ffffff"/>
	<circle cx="169.6" cy="236.8" r="1.9" fill="#ffffff"/>
	<circle cx="176.0" cy="236.8" r="2.0" fill="#ffffff"/>
	<circle cx="182.4" cy="236.8" r="2.2" fill="#ffffff"/>
	<circle cx="188.8" cy="236.8" r="2.2" fill="#ffffff"/>
	<circle cx="195.2" cy="236.8" r="2.2" fill="#ffffff"/>
	<circle cx="201.6" cy="236.8" r="1.6" fill="#ffffff"/>
	<circle cx="208.0" cy="236.8" r="1.1" fill="#ffffff"/>
	<circle cx="214.4" cy="236.8" r="1.0" fill="#ffffff"/>
	<circle cx="220.8" cy="236.8" r="1.4" fill="#ffffff"/>
	<circle cx="227.2" cy="236.8" r="2.3" fill="#ffffff"/>
	<circle cx="233.6" cy="236.8" r="1.4" fill="#ffffff"/>
	<circle cx="118.4" cy="243.2" r="1.5" fill="#ffffff"/>
	<circle cx="124.8" cy="243.2" r="1.9" fill="#ffffff"/>
	<circle cx="131.2" cy="243.2" r="1.8" fill="#ffffff"/>
	<circle cx="137.6" cy="243.2" r="1.9" fill="#ffffff"/>
	<circle cx="144.0" cy="243.2" r="1.9" fill="#ffffff"/>
	<circle cx="150.4" cy="243.2" r="1.9" fill="#ffffff"/>
	<circle cx="156.8" cy="243.2" r="2.0" fill="#ffffff"/>
	<circle cx="163.2" cy="243.2" r="2.0" fill="#ffffff"/>
	<circle cx="169.6" cy="243.2" r="1.7" fill="#ffffff"/>
	<circle cx="176.0" cy="243.2" r="1.9" fill="#ffffff"/>
	<circle cx="182.4" cy="243.2" r="2.2" fill="#ffffff"/>
	<circle cx="188.8" cy="243.2" r="2.2" fill="#ffffff"/>
	<circle cx="195.2" cy="243.2" r="2.1" fill="#ffffff"/>
	<circle cx="201.6" cy="243.2" r="1.5" fill="#ffffff"/>
	<circle cx="208.0" cy="243.2" r="1.0" fill="#ffffff"/>
	<circle cx="214.4" cy="243.2" r="1.0" fill="#ffffff"/>
	<circle cx="220.8" cy="243.2" r="1.6" fill="#ffffff"/>
	<circle cx="227.2" cy="243.2" r="2.3" fill="#ffffff"/>
	<circle cx="233.6" cy="243.2" r="1.7" fill="#ffffff"/>
</svg>
